<svg xmlns="http://www.w3.org/2000/svg" width="288" height="352" viewBox="0 0 288 352">
<rect x="128" y="0" width="16" height="16" fill="#B8E8D4"/>
<rect x="144" y="0" width="16" height="16" fill="#B8E8D4"/>
<rect x="96" y="16" width="16" height="16" fill="#FFB6C1"/>
<rect x="128" y="16" width="16" height="16" fill="#B8E8D4"/>
<rect x="144" y="16" width="16" height="16" fill="#B8E8D4"/>
<rect x="176" y="16" width="16" height="16" fill="#FFB6C1"/>
<rect x="64" y="32" width="16" height="16" fill="#FFD9B3"/>
<rect x="96" y="32" width="16" height="16" fill="#FFB6C1"/>
<rect x="128" y="32" width="16" height="16" fill="#B8E8D4"/>
<rect x="144" y="32" width="16" height="16" fill="#B8E8D4"/>
<rect x="176" y="32" width="16" height="16" fill="#FFB6C1"/>
<rect x="208" y="32" width="16" height="16" fill="#FFD9B3"/>
<rect x="64" y="48" width="16" height="16" fill="#FFD9B3"/>
<rect x="96" y="48" width="16" height="16" fill="#FFB6C1"/>
<rect x="128" y="48" width="16" height="16" fill="#B8E8D4"/>
<rect x="144" y="48" width="16" height="16" fill="#B8E8D4"/>
<rect x="176" y="48" width="16" height="16" fill="#FFB6C1"/>
<rect x="208" y="48" width="16" height="16" fill="#FFD9B3"/>
<rect x="80" y="64" width="16" height="16" fill="#E0A26E"/>
<rect x="96" y="64" width="16" height="16" fill="#FFF8F0"/>
<rect x="112" y="64" width="16" height="16" fill="#FFF8F0"/>
<rect x="128" y="64" width="16" height="16" fill="#FFF8F0"/>
<rect x="144" y="64" width="16" height="16" fill="#FFF8F0"/>
<rect x="160" y="64" width="16" height="16" fill="#FFF8F0"/>
<rect x="176" y="64" width="16" height="16" fill="#FFF8F0"/>
<rect x="192" y="64" width="16" height="16" fill="#E0A26E"/>
<rect x="48" y="80" width="16" height="16" fill="#E0A26E"/>
<rect x="64" y="80" width="16" height="16" fill="#FFF8F0"/>
<rect x="80" y="80" width="16" height="16" fill="#FFF8F0"/>
<rect x="96" y="80" width="16" height="16" fill="#FFF8F0"/>
<rect x="112" y="80" width="16" height="16" fill="#FFF8F0"/>
<rect x="128" y="80" width="16" height="16" fill="#FFF8F0"/>
<rect x="144" y="80" width="16" height="16" fill="#FFF8F0"/>
<rect x="160" y="80" width="16" height="16" fill="#FFF8F0"/>
<rect x="176" y="80" width="16" height="16" fill="#FFF8F0"/>
<rect x="192" y="80" width="16" height="16" fill="#FFF8F0"/>
<rect x="208" y="80" width="16" height="16" fill="#FFF8F0"/>
<rect x="224" y="80" width="16" height="16" fill="#E0A26E"/>
<rect x="32" y="96" width="16" height="16" fill="#E0A26E"/>
<rect x="48" y="96" width="16" height="16" fill="#FFF8F0"/>
<rect x="64" y="96" width="16" height="16" fill="#FFF8F0"/>
<rect x="80" y="96" width="16" height="16" fill="#FFF8F0"/>
<rect x="96" y="96" width="16" height="16" fill="#FFF8F0"/>
<rect x="112" y="96" width="16" height="16" fill="#FFF8F0"/>
<rect x="128" y="96" width="16" height="16" fill="#FFF8F0"/>
<rect x="144" y="96" width="16" height="16" fill="#FFF8F0"/>
<rect x="160" y="96" width="16" height="16" fill="#FFF8F0"/>
<rect x="176" y="96" width="16" height="16" fill="#FFF8F0"/>
<rect x="192" y="96" width="16" height="16" fill="#FFF8F0"/>
<rect x="208" y="96" width="16" height="16" fill="#FFF8F0"/>
<rect x="224" y="96" width="16" height="16" fill="#FFF8F0"/>
<rect x="240" y="96" width="16" height="16" fill="#E0A26E"/>
<rect x="16" y="112" width="16" height="16" fill="#E0A26E"/>
<rect x="32" y="112" width="16" height="16" fill="#FFF8F0"/>
<rect x="48" y="112" width="16" height="16" fill="#FFF8F0"/>
<rect x="64" y="112" width="16" height="16" fill="#FFF8F0"/>
<rect x="80" y="112" width="16" height="16" fill="#FFF8F0"/>
<rect x="96" y="112" width="16" height="16" fill="#FFF8F0"/>
<rect x="112" y="112" width="16" height="16" fill="#FFF8F0"/>
<rect x="128" y="112" width="16" height="16" fill="#FFF8F0"/>
<rect x="144" y="112" width="16" height="16" fill="#FFF8F0"/>
<rect x="160" y="112" width="16" height="16" fill="#FFF8F0"/>
<rect x="176" y="112" width="16" height="16" fill="#FFF8F0"/>
<rect x="192" y="112" width="16" height="16" fill="#FFF8F0"/>
<rect x="208" y="112" width="16" height="16" fill="#FFF8F0"/>
<rect x="224" y="112" width="16" height="16" fill="#FFF8F0"/>
<rect x="240" y="112" width="16" height="16" fill="#FFF8F0"/>
<rect x="256" y="112" width="16" height="16" fill="#E0A26E"/>
<rect x="0" y="128" width="16" height="16" fill="#E0A26E"/>
<rect x="16" y="128" width="16" height="16" fill="#FFF8F0"/>
<rect x="32" y="128" width="16" height="16" fill="#FFF8F0"/>
<rect x="48" y="128" width="16" height="16" fill="#FFF8F0"/>
<rect x="64" y="128" width="16" height="16" fill="#FFF8F0"/>
<rect x="80" y="128" width="16" height="16" fill="#FFF8F0"/>
<rect x="96" y="128" width="16" height="16" fill="#FFF8F0"/>
<rect x="112" y="128" width="16" height="16" fill="#FFF8F0"/>
<rect x="128" y="128" width="16" height="16" fill="#FFF8F0"/>
<rect x="144" y="128" width="16" height="16" fill="#FFF8F0"/>
<rect x="160" y="128" width="16" height="16" fill="#FFF8F0"/>
<rect x="176" y="128" width="16" height="16" fill="#FFF8F0"/>
<rect x="192" y="128" width="16" height="16" fill="#FFF8F0"/>
<rect x="208" y="128" width="16" height="16" fill="#FFF8F0"/>
<rect x="224" y="128" width="16" height="16" fill="#FFF8F0"/>
<rect x="240" y="128" width="16" height="16" fill="#FFF8F0"/>
<rect x="256" y="128" width="16" height="16" fill="#FFF8F0"/>
<rect x="272" y="128" width="16" height="16" fill="#E0A26E"/>
<rect x="0" y="144" width="16" height="16" fill="#E0A26E"/>
<rect x="16" y="144" width="16" height="16" fill="#FFF8F0"/>
<rect x="32" y="144" width="16" height="16" fill="#FFF8F0"/>
<rect x="48" y="144" width="16" height="16" fill="#FFF8F0"/>
<rect x="64" y="144" width="16" height="16" fill="#FFF8F0"/>
<rect x="80" y="144" width="16" height="16" fill="#FFF8F0"/>
<rect x="96" y="144" width="16" height="16" fill="#FFF8F0"/>
<rect x="112" y="144" width="16" height="16" fill="#FFF8F0"/>
<rect x="128" y="144" width="16" height="16" fill="#FFF8F0"/>
<rect x="144" y="144" width="16" height="16" fill="#FFF8F0"/>
<rect x="160" y="144" width="16" height="16" fill="#FFF8F0"/>
<rect x="176" y="144" width="16" height="16" fill="#FFF8F0"/>
<rect x="192" y="144" width="16" height="16" fill="#FFF8F0"/>
<rect x="208" y="144" width="16" height="16" fill="#FFF8F0"/>
<rect x="224" y="144" width="16" height="16" fill="#FFF8F0"/>
<rect x="240" y="144" width="16" height="16" fill="#FFF8F0"/>
<rect x="256" y="144" width="16" height="16" fill="#FFF8F0"/>
<rect x="272" y="144" width="16" height="16" fill="#E0A26E"/>
<rect x="0" y="160" width="16" height="16" fill="#E0A26E"/>
<rect x="16" y="160" width="16" height="16" fill="#FFF8F0"/>
<rect x="32" y="160" width="16" height="16" fill="#FFF8F0"/>
<rect x="48" y="160" width="16" height="16" fill="#FFF8F0"/>
<rect x="64" y="160" width="16" height="16" fill="#FFF8F0"/>
<rect x="80" y="160" width="16" height="16" fill="#FFF8F0"/>
<rect x="96" y="160" width="16" height="16" fill="#4A3B4E"/>
<rect x="112" y="160" width="16" height="16" fill="#4A3B4E"/>
<rect x="128" y="160" width="16" height="16" fill="#FFF8F0"/>
<rect x="144" y="160" width="16" height="16" fill="#FFF8F0"/>
<rect x="160" y="160" width="16" height="16" fill="#4A3B4E"/>
<rect x="176" y="160" width="16" height="16" fill="#4A3B4E"/>
<rect x="192" y="160" width="16" height="16" fill="#FFF8F0"/>
<rect x="208" y="160" width="16" height="16" fill="#FFF8F0"/>
<rect x="224" y="160" width="16" height="16" fill="#FFF8F0"/>
<rect x="240" y="160" width="16" height="16" fill="#FFF8F0"/>
<rect x="256" y="160" width="16" height="16" fill="#FFF8F0"/>
<rect x="272" y="160" width="16" height="16" fill="#E0A26E"/>
<rect x="0" y="176" width="16" height="16" fill="#E0A26E"/>
<rect x="16" y="176" width="16" height="16" fill="#FFF8F0"/>
<rect x="32" y="176" width="16" height="16" fill="#FFF8F0"/>
<rect x="48" y="176" width="16" height="16" fill="#FFC1CC"/>
<rect x="64" y="176" width="16" height="16" fill="#FFC1CC"/>
<rect x="80" y="176" width="16" height="16" fill="#FFF8F0"/>
<rect x="96" y="176" width="16" height="16" fill="#FFF8F0"/>
<rect x="112" y="176" width="16" height="16" fill="#FFF8F0"/>
<rect x="128" y="176" width="16" height="16" fill="#FFF8F0"/>
<rect x="144" y="176" width="16" height="16" fill="#FFF8F0"/>
<rect x="160" y="176" width="16" height="16" fill="#FFF8F0"/>
<rect x="176" y="176" width="16" height="16" fill="#FFF8F0"/>
<rect x="192" y="176" width="16" height="16" fill="#FFF8F0"/>
<rect x="208" y="176" width="16" height="16" fill="#FFC1CC"/>
<rect x="224" y="176" width="16" height="16" fill="#FFC1CC"/>
<rect x="240" y="176" width="16" height="16" fill="#FFF8F0"/>
<rect x="256" y="176" width="16" height="16" fill="#FFF8F0"/>
<rect x="272" y="176" width="16" height="16" fill="#E0A26E"/>
<rect x="0" y="192" width="16" height="16" fill="#E0A26E"/>
<rect x="16" y="192" width="16" height="16" fill="#FFF8F0"/>
<rect x="32" y="192" width="16" height="16" fill="#FFF8F0"/>
<rect x="48" y="192" width="16" height="16" fill="#FFF8F0"/>
<rect x="64" y="192" width="16" height="16" fill="#FFF8F0"/>
<rect x="80" y="192" width="16" height="16" fill="#FFF8F0"/>
<rect x="96" y="192" width="16" height="16" fill="#FFF8F0"/>
<rect x="112" y="192" width="16" height="16" fill="#FFF8F0"/>
<rect x="128" y="192" width="16" height="16" fill="#4A3B4E"/>
<rect x="144" y="192" width="16" height="16" fill="#4A3B4E"/>
<rect x="160" y="192" width="16" height="16" fill="#FFF8F0"/>
<rect x="176" y="192" width="16" height="16" fill="#FFF8F0"/>
<rect x="192" y="192" width="16" height="16" fill="#FFF8F0"/>
<rect x="208" y="192" width="16" height="16" fill="#FFF8F0"/>
<rect x="224" y="192" width="16" height="16" fill="#FFF8F0"/>
<rect x="240" y="192" width="16" height="16" fill="#FFF8F0"/>
<rect x="256" y="192" width="16" height="16" fill="#FFF8F0"/>
<rect x="272" y="192" width="16" height="16" fill="#E0A26E"/>
<rect x="0" y="208" width="16" height="16" fill="#E0A26E"/>
<rect x="16" y="208" width="16" height="16" fill="#FFF8F0"/>
<rect x="32" y="208" width="16" height="16" fill="#FFF8F0"/>
<rect x="48" y="208" width="16" height="16" fill="#FFF8F0"/>
<rect x="64" y="208" width="16" height="16" fill="#FFF8F0"/>
<rect x="80" y="208" width="16" height="16" fill="#FFF8F0"/>
<rect x="96" y="208" width="16" height="16" fill="#FFF8F0"/>
<rect x="112" y="208" width="16" height="16" fill="#FFF8F0"/>
<rect x="128" y="208" width="16" height="16" fill="#FFF8F0"/>
<rect x="144" y="208" width="16" height="16" fill="#FFF8F0"/>
<rect x="160" y="208" width="16" height="16" fill="#FFF8F0"/>
<rect x="176" y="208" width="16" height="16" fill="#FFF8F0"/>
<rect x="192" y="208" width="16" height="16" fill="#FFF8F0"/>
<rect x="208" y="208" width="16" height="16" fill="#FFF8F0"/>
<rect x="224" y="208" width="16" height="16" fill="#FFF8F0"/>
<rect x="240" y="208" width="16" height="16" fill="#FFF8F0"/>
<rect x="256" y="208" width="16" height="16" fill="#FFF8F0"/>
<rect x="272" y="208" width="16" height="16" fill="#E0A26E"/>
<rect x="16" y="224" width="16" height="16" fill="#E0A26E"/>
<rect x="32" y="224" width="16" height="16" fill="#FFF8F0"/>
<rect x="48" y="224" width="16" height="16" fill="#FFF8F0"/>
<rect x="64" y="224" width="16" height="16" fill="#FFF8F0"/>
<rect x="80" y="224" width="16" height="16" fill="#FFF8F0"/>
<rect x="96" y="224" width="16" height="16" fill="#FFF8F0"/>
<rect x="112" y="224" width="16" height="16" fill="#FFF8F0"/>
<rect x="128" y="224" width="16" height="16" fill="#FFF8F0"/>
<rect x="144" y="224" width="16" height="16" fill="#FFF8F0"/>
<rect x="160" y="224" width="16" height="16" fill="#FFF8F0"/>
<rect x="176" y="224" width="16" height="16" fill="#FFF8F0"/>
<rect x="192" y="224" width="16" height="16" fill="#FFF8F0"/>
<rect x="208" y="224" width="16" height="16" fill="#FFF8F0"/>
<rect x="224" y="224" width="16" height="16" fill="#FFF8F0"/>
<rect x="240" y="224" width="16" height="16" fill="#FFF8F0"/>
<rect x="256" y="224" width="16" height="16" fill="#E0A26E"/>
<rect x="32" y="240" width="16" height="16" fill="#E0A26E"/>
<rect x="48" y="240" width="16" height="16" fill="#FFF8F0"/>
<rect x="64" y="240" width="16" height="16" fill="#FFF8F0"/>
<rect x="80" y="240" width="16" height="16" fill="#FFF8F0"/>
<rect x="96" y="240" width="16" height="16" fill="#FFF8F0"/>
<rect x="112" y="240" width="16" height="16" fill="#FFF8F0"/>
<rect x="128" y="240" width="16" height="16" fill="#FFF8F0"/>
<rect x="144" y="240" width="16" height="16" fill="#FFF8F0"/>
<rect x="160" y="240" width="16" height="16" fill="#FFF8F0"/>
<rect x="176" y="240" width="16" height="16" fill="#FFF8F0"/>
<rect x="192" y="240" width="16" height="16" fill="#FFF8F0"/>
<rect x="208" y="240" width="16" height="16" fill="#FFF8F0"/>
<rect x="224" y="240" width="16" height="16" fill="#FFF8F0"/>
<rect x="240" y="240" width="16" height="16" fill="#E0A26E"/>
<rect x="64" y="256" width="16" height="16" fill="#E0A26E"/>
<rect x="80" y="256" width="16" height="16" fill="#FFF8F0"/>
<rect x="96" y="256" width="16" height="16" fill="#FFF8F0"/>
<rect x="112" y="256" width="16" height="16" fill="#FFF8F0"/>
<rect x="128" y="256" width="16" height="16" fill="#FFF8F0"/>
<rect x="144" y="256" width="16" height="16" fill="#FFF8F0"/>
<rect x="160" y="256" width="16" height="16" fill="#FFF8F0"/>
<rect x="176" y="256" width="16" height="16" fill="#FFF8F0"/>
<rect x="192" y="256" width="16" height="16" fill="#FFF8F0"/>
<rect x="208" y="256" width="16" height="16" fill="#E0A26E"/>
<rect x="96" y="272" width="16" height="16" fill="#E0A26E"/>
<rect x="112" y="272" width="16" height="16" fill="#FFF8F0"/>
<rect x="128" y="272" width="16" height="16" fill="#FFF8F0"/>
<rect x="144" y="272" width="16" height="16" fill="#FFF8F0"/>
<rect x="160" y="272" width="16" height="16" fill="#FFF8F0"/>
<rect x="176" y="272" width="16" height="16" fill="#E0A26E"/>
</svg>