<svg xmlns="http://www.w3.org/2000/svg" width="1000" height="50" viewBox="0 0 1000 50">
<rect x="0.0" y="34.9" width="8.6" height="9.1" rx="2" fill="#D6C2EA" opacity="0.6"/>
<rect x="14.3" y="23.1" width="8.6" height="20.9" rx="2" fill="#B8CFE8" opacity="0.77"/>
<rect x="28.6" y="37.9" width="8.6" height="6.1" rx="2" fill="#C9B8E8" opacity="0.87"/>
<rect x="42.9" y="30.8" width="8.6" height="13.2" rx="2" fill="#D6C2EA" opacity="0.63"/>
<rect x="57.1" y="21.7" width="8.6" height="22.3" rx="2" fill="#B8CFE8" opacity="0.74"/>
<rect x="71.4" y="29.4" width="8.6" height="14.6" rx="2" fill="#B8CFE8" opacity="0.77"/>
<rect x="85.7" y="36.4" width="8.6" height="7.6" rx="2" fill="#D6C2EA" opacity="0.6"/>
<rect x="100.0" y="22.9" width="8.6" height="21.1" rx="2" fill="#B8CFE8" opacity="0.81"/>
<rect x="114.3" y="27.3" width="8.6" height="16.7" rx="2" fill="#C9B8E8" opacity="0.61"/>
<rect x="128.6" y="22.3" width="8.6" height="21.7" rx="2" fill="#C9B8E8" opacity="0.66"/>
<rect x="142.9" y="38.5" width="8.6" height="5.5" rx="2" fill="#B8CFE8" opacity="0.72"/>
<rect x="157.1" y="26.5" width="8.6" height="17.5" rx="2" fill="#B8CFE8" opacity="0.8"/>
<rect x="171.4" y="23.0" width="8.6" height="21.0" rx="2" fill="#B8CFE8" opacity="0.8"/>
<rect x="185.7" y="29.0" width="8.6" height="15.0" rx="2" fill="#C9B8E8" opacity="0.86"/>
<rect x="200.0" y="37.3" width="8.6" height="6.7" rx="2" fill="#C9B8E8" opacity="0.72"/>
<rect x="214.3" y="34.5" width="8.6" height="9.5" rx="2" fill="#D6C2EA" opacity="0.7"/>
<rect x="228.6" y="28.1" width="8.6" height="15.9" rx="2" fill="#B8CFE8" opacity="0.7"/>
<rect x="242.9" y="24.5" width="8.6" height="19.5" rx="2" fill="#D6C2EA" opacity="0.67"/>
<rect x="257.1" y="28.8" width="8.6" height="15.2" rx="2" fill="#D6C2EA" opacity="0.63"/>
<rect x="271.4" y="33.1" width="8.6" height="10.9" rx="2" fill="#C9B8E8" opacity="0.85"/>
<rect x="285.7" y="21.8" width="8.6" height="22.2" rx="2" fill="#D6C2EA" opacity="0.79"/>
<rect x="300.0" y="26.8" width="8.6" height="17.2" rx="2" fill="#B8CFE8" opacity="0.89"/>
<rect x="314.3" y="23.3" width="8.6" height="20.7" rx="2" fill="#D6C2EA" opacity="0.59"/>
<rect x="328.6" y="27.6" width="8.6" height="16.4" rx="2" fill="#D6C2EA" opacity="0.84"/>
<rect x="342.9" y="29.0" width="8.6" height="15.0" rx="2" fill="#B8CFE8" opacity="0.59"/>
<rect x="357.1" y="30.6" width="8.6" height="13.4" rx="2" fill="#D6C2EA" opacity="0.9"/>
<rect x="371.4" y="37.5" width="8.6" height="6.5" rx="2" fill="#C9B8E8" opacity="0.69"/>
<rect x="385.7" y="36.4" width="8.6" height="7.6" rx="2" fill="#B8CFE8" opacity="0.7"/>
<rect x="400.0" y="31.8" width="8.6" height="12.2" rx="2" fill="#C9B8E8" opacity="0.57"/>
<rect x="414.3" y="28.3" width="8.6" height="15.7" rx="2" fill="#C9B8E8" opacity="0.68"/>
<rect x="428.6" y="28.8" width="8.6" height="15.2" rx="2" fill="#D6C2EA" opacity="0.86"/>
<rect x="442.9" y="21.9" width="8.6" height="22.1" rx="2" fill="#D6C2EA" opacity="0.63"/>
<rect x="457.1" y="38.4" width="8.6" height="5.6" rx="2" fill="#C9B8E8" opacity="0.6"/>
<rect x="471.4" y="36.7" width="8.6" height="7.3" rx="2" fill="#D6C2EA" opacity="0.63"/>
<rect x="485.7" y="29.1" width="8.6" height="14.9" rx="2" fill="#C9B8E8" opacity="0.67"/>
<rect x="500.0" y="23.2" width="8.6" height="20.8" rx="2" fill="#B8CFE8" opacity="0.7"/>
<rect x="514.3" y="27.7" width="8.6" height="16.3" rx="2" fill="#C9B8E8" opacity="0.73"/>
<rect x="528.6" y="26.7" width="8.6" height="17.3" rx="2" fill="#B8CFE8" opacity="0.77"/>
<rect x="542.9" y="30.0" width="8.6" height="14.0" rx="2" fill="#C9B8E8" opacity="0.8"/>
<rect x="557.1" y="25.1" width="8.6" height="18.9" rx="2" fill="#B8E8D4" opacity="0.83"/>
<rect x="571.4" y="28.4" width="8.6" height="15.6" rx="2" fill="#B8E8D4" opacity="0.87"/>
<rect x="585.7" y="27.5" width="8.6" height="16.5" rx="2" fill="#B8E8D4" opacity="0.9"/>
<rect x="600.0" y="27.0" width="8.6" height="17.0" rx="2" fill="#B8E8D4" opacity="0.93"/>
<rect x="614.3" y="26.5" width="8.6" height="17.5" rx="2" fill="#B8E8D4" opacity="0.97"/>
<rect x="628.6" y="21.6" width="8.6" height="22.4" rx="2" fill="#B8E8D4" opacity="0.9"/>
<rect x="642.9" y="23.7" width="8.6" height="20.3" rx="2" fill="#FFD9B3" opacity="0.9"/>
<rect x="657.1" y="25.9" width="8.6" height="18.1" rx="2" fill="#B8E8D4" opacity="0.9"/>
<rect x="671.4" y="28.0" width="8.6" height="16.0" rx="2" fill="#FFD9B3" opacity="0.9"/>
<rect x="685.7" y="25.9" width="8.6" height="18.1" rx="2" fill="#B8E8D4" opacity="0.9"/>
<rect x="700.0" y="23.7" width="8.6" height="20.3" rx="2" fill="#FFD9B3" opacity="0.9"/>
<rect x="714.3" y="21.6" width="8.6" height="22.4" rx="2" fill="#B8E8D4" opacity="0.9"/>
<rect x="728.6" y="23.7" width="8.6" height="20.3" rx="2" fill="#FFD9B3" opacity="0.9"/>
<rect x="742.9" y="25.9" width="8.6" height="18.1" rx="2" fill="#B8E8D4" opacity="0.9"/>
<rect x="757.1" y="28.0" width="8.6" height="16.0" rx="2" fill="#FFD9B3" opacity="0.9"/>
<rect x="771.4" y="25.9" width="8.6" height="18.1" rx="2" fill="#B8E8D4" opacity="0.9"/>
<rect x="785.7" y="23.7" width="8.6" height="20.3" rx="2" fill="#FFD9B3" opacity="0.9"/>
<rect x="800.0" y="21.6" width="8.6" height="22.4" rx="2" fill="#B8E8D4" opacity="0.9"/>
<rect x="814.3" y="23.7" width="8.6" height="20.3" rx="2" fill="#FFD9B3" opacity="0.9"/>
<rect x="828.6" y="25.9" width="8.6" height="18.1" rx="2" fill="#B8E8D4" opacity="0.9"/>
<rect x="842.9" y="28.0" width="8.6" height="16.0" rx="2" fill="#FFD9B3" opacity="0.9"/>
<rect x="857.1" y="25.9" width="8.6" height="18.1" rx="2" fill="#B8E8D4" opacity="0.9"/>
<rect x="871.4" y="23.7" width="8.6" height="20.3" rx="2" fill="#FFD9B3" opacity="0.9"/>
<rect x="885.7" y="21.6" width="8.6" height="22.4" rx="2" fill="#B8E8D4" opacity="0.9"/>
<rect x="900.0" y="23.7" width="8.6" height="20.3" rx="2" fill="#FFD9B3" opacity="0.9"/>
<rect x="914.3" y="25.9" width="8.6" height="18.1" rx="2" fill="#B8E8D4" opacity="0.9"/>
<rect x="928.6" y="28.0" width="8.6" height="16.0" rx="2" fill="#FFD9B3" opacity="0.9"/>
<rect x="942.9" y="25.9" width="8.6" height="18.1" rx="2" fill="#B8E8D4" opacity="0.9"/>
<rect x="957.1" y="23.7" width="8.6" height="20.3" rx="2" fill="#FFD9B3" opacity="0.9"/>
<rect x="971.4" y="21.6" width="8.6" height="22.4" rx="2" fill="#B8E8D4" opacity="0.9"/>
<rect x="985.7" y="23.7" width="8.6" height="20.3" rx="2" fill="#FFD9B3" opacity="0.9"/>
</svg>